<svg width="30" height="30" viewBox="0 0 30 30" fill="none" xmlns="http://www.w3.org/2000/svg">
<path d="M26.7025 11.7149C26.626 11.4896 26.4852 11.2917 26.2976 11.1455C26.1099 10.9994 25.8835 10.9114 25.6464 10.8924L18.7102 10.3413L15.7087 3.69704C15.6131 3.48304 15.4576 3.30128 15.261 3.1737C15.0644 3.04611 14.8351 2.97816 14.6007 2.97803C14.3663 2.9779 14.1369 3.0456 13.9402 3.17297C13.7434 3.30034 13.5877 3.48193 13.4919 3.69582L10.4904 10.3413L3.55418 10.8924C3.32113 10.9109 3.09834 10.9961 2.91245 11.1378C2.72656 11.2796 2.58546 11.4719 2.50601 11.6918C2.42656 11.9117 2.41214 12.1497 2.46446 12.3776C2.51679 12.6054 2.63365 12.8134 2.80106 12.9766L7.92688 17.9734L6.11404 25.8233C6.059 26.061 6.07664 26.3096 6.16468 26.5371C6.25272 26.7646 6.40709 26.9603 6.60777 27.0989C6.80844 27.2376 7.04615 27.3127 7.29005 27.3146C7.53395 27.3164 7.77278 27.2449 7.97554 27.1094L14.6003 22.6929L21.225 27.1094C21.4323 27.247 21.6767 27.3178 21.9254 27.3123C22.1741 27.3069 22.4152 27.2254 22.6162 27.0788C22.8172 26.9323 22.9685 26.7277 23.0498 26.4926C23.131 26.2575 23.1383 26.0031 23.0707 25.7637L20.8454 17.9771L26.3642 13.0106C26.7256 12.6846 26.8582 12.176 26.7025 11.7149Z" fill="#F3CD03"/>
</svg>
