<svg width="273" height="54" viewBox="0 0 273 54" fill="none" xmlns="http://www.w3.org/2000/svg">
<path d="M0 27C0 12.0883 12.0883 0 27 0H246C260.912 0 273 12.0883 273 27C273 41.9117 260.912 54 246 54H27C12.0883 54 0 41.9117 0 27Z" fill="#EFEFEF"/>
<path d="M43.1904 27.0439L45.7881 22.0469H47.2783L43.8467 28.2881V32H42.5342V28.2881L39.1025 22.0469H40.6064L43.1904 27.0439ZM47.6791 28.2334C47.6791 27.5088 47.8204 26.8571 48.1029 26.2783C48.39 25.6995 48.7865 25.2529 49.2924 24.9385C49.8028 24.624 50.3839 24.4668 51.0355 24.4668C52.0427 24.4668 52.8562 24.8154 53.476 25.5127C54.1003 26.21 54.4125 27.1374 54.4125 28.2949V28.3838C54.4125 29.1038 54.2735 29.751 53.9955 30.3252C53.7221 30.8949 53.3279 31.3392 52.8129 31.6582C52.3025 31.9772 51.7146 32.1367 51.0492 32.1367C50.0466 32.1367 49.2331 31.7881 48.6088 31.0908C47.989 30.3936 47.6791 29.4707 47.6791 28.3223V28.2334ZM48.9506 28.3838C48.9506 29.2041 49.1397 29.8626 49.518 30.3594C49.9008 30.8561 50.4112 31.1045 51.0492 31.1045C51.6918 31.1045 52.2022 30.8538 52.5805 30.3525C52.9587 29.8467 53.1479 29.1403 53.1479 28.2334C53.1479 27.4222 52.9542 26.766 52.5668 26.2646C52.184 25.7588 51.6736 25.5059 51.0355 25.5059C50.4112 25.5059 49.9076 25.7542 49.5248 26.251C49.142 26.7477 48.9506 27.4587 48.9506 28.3838ZM60.6648 31.2686C60.1727 31.8473 59.4503 32.1367 58.4979 32.1367C57.7094 32.1367 57.1079 31.9089 56.6932 31.4531C56.283 30.9928 56.0757 30.3138 56.0711 29.416V24.6035H57.3357V29.3818C57.3357 30.5029 57.7915 31.0635 58.7029 31.0635C59.6691 31.0635 60.3117 30.7035 60.6307 29.9834V24.6035H61.8953V32H60.6922L60.6648 31.2686ZM67.4982 25.7383C67.3068 25.7064 67.0995 25.6904 66.8762 25.6904C66.0467 25.6904 65.4839 26.0436 65.1877 26.75V32H63.923V24.6035H65.1535L65.174 25.458C65.5887 24.7972 66.1766 24.4668 66.9377 24.4668C67.1838 24.4668 67.3706 24.4987 67.4982 24.5625V25.7383ZM78.1641 27.3994H73.8506V30.9268H78.8613V32H72.5381V22.0469H78.793V23.127H73.8506V26.3262H78.1641V27.3994ZM81.5863 24.6035L81.6205 25.4238C82.1628 24.7858 82.8943 24.4668 83.8148 24.4668C84.8493 24.4668 85.5534 24.8633 85.9271 25.6562C86.1732 25.3008 86.4923 25.0137 86.8842 24.7949C87.2807 24.5762 87.7478 24.4668 88.2855 24.4668C89.9079 24.4668 90.7328 25.3258 90.7602 27.0439V32H89.4955V27.1191C89.4955 26.5905 89.3747 26.1963 89.1332 25.9365C88.8917 25.6722 88.4861 25.54 87.9164 25.54C87.447 25.54 87.0574 25.6813 86.7475 25.9639C86.4376 26.2419 86.2576 26.6178 86.2074 27.0918V32H84.9359V27.1533C84.9359 26.0778 84.4096 25.54 83.3568 25.54C82.5274 25.54 81.96 25.8932 81.6547 26.5996V32H80.39V24.6035H81.5863ZM97.3406 32C97.2677 31.8542 97.2085 31.5944 97.1629 31.2207C96.575 31.8314 95.8732 32.1367 95.0574 32.1367C94.3283 32.1367 93.729 31.9316 93.2596 31.5215C92.7947 31.1068 92.5623 30.5827 92.5623 29.9492C92.5623 29.179 92.854 28.582 93.4373 28.1582C94.0252 27.7298 94.8501 27.5156 95.9119 27.5156H97.1424V26.9346C97.1424 26.4925 97.0102 26.1416 96.7459 25.8818C96.4816 25.6175 96.0919 25.4854 95.577 25.4854C95.1258 25.4854 94.7475 25.5993 94.4422 25.8271C94.1368 26.055 93.9842 26.3307 93.9842 26.6543H92.7127C92.7127 26.2852 92.8426 25.9297 93.1023 25.5879C93.3667 25.2415 93.7221 24.9681 94.1688 24.7676C94.6199 24.5671 95.1144 24.4668 95.6521 24.4668C96.5044 24.4668 97.172 24.681 97.6551 25.1094C98.1382 25.5332 98.3888 26.1188 98.407 26.8662V30.2705C98.407 30.9495 98.4936 31.4896 98.6668 31.8906V32H97.3406ZM95.242 31.0361C95.6385 31.0361 96.0145 30.9336 96.3699 30.7285C96.7254 30.5234 96.9829 30.2568 97.1424 29.9287V28.4111H96.1512C94.6017 28.4111 93.827 28.8646 93.827 29.7715C93.827 30.168 93.9591 30.4779 94.2234 30.7012C94.4878 30.9245 94.8273 31.0361 95.242 31.0361ZM101.863 32H100.599V24.6035H101.863V32ZM100.496 22.6416C100.496 22.4365 100.558 22.2633 100.681 22.1221C100.808 21.9808 100.995 21.9102 101.241 21.9102C101.487 21.9102 101.674 21.9808 101.802 22.1221C101.93 22.2633 101.993 22.4365 101.993 22.6416C101.993 22.8467 101.93 23.0176 101.802 23.1543C101.674 23.291 101.487 23.3594 101.241 23.3594C100.995 23.3594 100.808 23.291 100.681 23.1543C100.558 23.0176 100.496 22.8467 100.496 22.6416ZM105.368 32H104.103V21.5H105.368V32Z" fill="#18171D"/>
<path d="M27 1H246V-1H27V1ZM246 53H27V55H246V53ZM27 53C12.6406 53 1 41.3594 1 27H-1C-1 42.464 11.536 55 27 55V53ZM272 27C272 41.3594 260.359 53 246 53V55C261.464 55 274 42.464 274 27H272ZM246 1C260.359 1 272 12.6406 272 27H274C274 11.536 261.464 -1 246 -1V1ZM27 -1C11.536 -1 -1 11.536 -1 27H1C1 12.6406 12.6406 1 27 1V-1Z" fill="#E8E8E8"/>
</svg>
