<svg width="25" height="26" viewBox="0 0 25 26" fill="none" xmlns="http://www.w3.org/2000/svg">
<path d="M5.72887 15.9733L3.91604 23.8232C3.8599 24.0609 3.87676 24.31 3.9644 24.538C4.05204 24.766 4.20639 24.9622 4.40729 25.1011C4.6082 25.24 4.84632 25.3151 5.09055 25.3165C5.33479 25.318 5.57378 25.2457 5.77632 25.1092L12.4011 20.6927L19.0258 25.1092C19.2331 25.2468 19.4775 25.3177 19.7262 25.3122C19.9749 25.3068 20.2159 25.2253 20.417 25.0787C20.618 24.9322 20.7693 24.7276 20.8505 24.4925C20.9318 24.2574 20.9391 24.003 20.8715 23.7636L18.6462 15.9769L24.165 11.0105C24.3418 10.8513 24.468 10.6439 24.5281 10.4137C24.5882 10.1836 24.5795 9.94091 24.5031 9.71565C24.4268 9.4904 24.286 9.29247 24.0984 9.14635C23.9107 9.00023 23.6843 8.91232 23.4472 8.8935L16.511 8.34113L13.5095 1.69692C13.4137 1.48297 13.2582 1.3013 13.0615 1.17382C12.8648 1.04635 12.6354 0.978516 12.4011 0.978516C12.1667 0.978516 11.9373 1.04635 11.7407 1.17382C11.544 1.3013 11.3884 1.48297 11.2927 1.69692L8.29117 8.34113L1.35496 8.89228C1.12191 8.91075 0.899118 8.99596 0.713232 9.13772C0.527346 9.27949 0.386238 9.47181 0.30679 9.69167C0.227342 9.91153 0.212918 10.1496 0.265243 10.3775C0.317569 10.6053 0.434428 10.8133 0.60184 10.9764L5.72887 15.9733ZM9.20002 10.71C9.41719 10.6929 9.62576 10.6177 9.80386 10.4922C9.98196 10.3668 10.123 10.1957 10.2123 9.99702L12.4011 5.15347L14.5899 9.99702C14.6791 10.1957 14.8202 10.3668 14.9983 10.4922C15.1764 10.6177 15.385 10.6929 15.6021 10.71L20.4347 11.0932L16.455 14.6751C16.1095 14.9866 15.972 15.4659 16.0985 15.9137L17.623 21.2487L13.0775 18.218C12.878 18.0841 12.6432 18.0126 12.4029 18.0126C12.1626 18.0126 11.9278 18.0841 11.7283 18.218L6.97839 21.385L8.25589 15.854C8.30273 15.6506 8.29644 15.4386 8.23763 15.2383C8.17883 15.038 8.06947 14.8562 7.92009 14.7104L4.22386 11.1066L9.20002 10.71Z" fill="#F3CD03"/>
</svg>
