<svg width="25" height="26" viewBox="0 0 25 26" fill="none" xmlns="http://www.w3.org/2000/svg">
<path d="M24.7025 9.71487C24.626 9.48962 24.4852 9.2917 24.2976 9.14554C24.1099 8.99938 23.8835 8.91138 23.6464 8.89241L16.7102 8.34125L13.7087 1.69704C13.6131 1.48304 13.4576 1.30128 13.261 1.1737C13.0644 1.04611 12.8351 0.978156 12.6007 0.978028C12.3663 0.977899 12.1369 1.0456 11.9402 1.17297C11.7434 1.30034 11.5877 1.48193 11.4919 1.69582L8.49039 8.34125L1.55418 8.89241C1.32113 8.91087 1.09834 8.99608 0.912451 9.13784C0.726565 9.27961 0.585457 9.47193 0.506009 9.69179C0.426561 9.91165 0.412137 10.1497 0.464462 10.3776C0.516787 10.6054 0.633647 10.8134 0.801059 10.9766L5.92688 15.9734L4.11404 23.8233C4.059 24.061 4.07664 24.3096 4.16468 24.5371C4.25272 24.7646 4.40709 24.9603 4.60777 25.0989C4.80844 25.2376 5.04615 25.3127 5.29005 25.3146C5.53395 25.3164 5.77278 25.2449 5.97554 25.1094L12.6003 20.6929L19.225 25.1094C19.4323 25.247 19.6767 25.3178 19.9254 25.3123C20.1741 25.3069 20.4152 25.2254 20.6162 25.0788C20.8172 24.9323 20.9685 24.7277 21.0498 24.4926C21.131 24.2575 21.1383 24.0031 21.0707 23.7637L18.8454 15.9771L24.3642 11.0106C24.7256 10.6846 24.8582 10.176 24.7025 9.71487Z" fill="#F3CD03"/>
</svg>
